<svg xmlns="http://www.w3.org/2000/svg" viewBox="0 0 560 360" role="img" aria-labelledby="t">
  <title id="t">!  5?CB0F8O 360: >B7K2, B>=, >B25B >?5@0B>@C</title>
  <rect width="560" height="360" fill="#131C2E"/>
  <defs>
    <linearGradient id="rg" x1="0" y1="0" x2="1" y2="1">
      <stop offset="0" stop-color="#1D4ED8" stop-opacity=".35"/>
      <stop offset="1" stop-color="#F97316" stop-opacity=".16"/>
    </linearGradient>
  </defs>
  <rect width="560" height="360" fill="url(#rg)"/>
  <rect x="32" y="40" width="226" height="280" rx="20" fill="#0B0F1A" stroke="#F97316" stroke-width="2"/>
  <text x="145" y="78" text-anchor="middle" fill="#FDBA74" font-family="JetBrains Mono, monospace" font-size="13">!09B</text>
  <rect x="52" y="100" width="186" height="10" rx="5" fill="#1E2D45"/>
  <rect x="52" y="122" width="148" height="10" rx="5" fill="#1E2D45"/>
  <rect x="52" y="154" width="186" height="72" rx="10" fill="#1A2235"/>
  <text x="145" y="196" text-anchor="middle" fill="#E2E8F0" font-family="Inter, sans-serif" font-size="12">>B7K2 :;85=B0</text>
  <rect x="52" y="246" width="186" height="36" rx="12" fill="#1E3A8A"/>
  <text x="145" y="269" text-anchor="middle" fill="#E2E8F0" font-family="Inter, sans-serif" font-size="12">>B?@028BL</text>
  <rect x="282" y="40" width="246" height="128" rx="16" fill="#0B0F1A" stroke="#818CF8" stroke-width="2"/>
  <text x="405" y="78" text-anchor="middle" fill="#C7D2FE" font-family="JetBrains Mono, monospace" font-size="13">OpenAI</text>
  <rect x="306" y="100" width="90" height="36" rx="10" fill="#1E3A8A"/>
  <text x="351" y="123" text-anchor="middle" fill="#E2E8F0" font-family="Inter, sans-serif" font-size="12">B>=</text>
  <rect x="408" y="100" width="96" height="36" rx="10" fill="#1A2235"/>
  <text x="456" y="123" text-anchor="middle" fill="#94A3B8" font-family="Inter, sans-serif" font-size="12">G5@=>28:</text>
  <rect x="282" y="188" width="116" height="132" rx="14" fill="#0B0F1A" stroke="#34D399"/>
  <text x="340" y="248" text-anchor="middle" fill="#6EE7B7" font-family="Inter, sans-serif" font-size="12">?>E20;0</text>
  <text x="340" y="270" text-anchor="middle" fill="#94A3B8" font-family="Inter, sans-serif" font-size="11">2 ;5=BC</text>
  <rect x="412" y="188" width="116" height="132" rx="14" fill="#0B0F1A" stroke="#F97316"/>
  <text x="470" y="248" text-anchor="middle" fill="#FDBA74" font-family="Inter, sans-serif" font-size="12">60;>10</text>
  <text x="470" y="270" text-anchor="middle" fill="#94A3B8" font-family="Inter, sans-serif" font-size="11">>?5@0B>@</text>
</svg>
